<?xml version="1.0" standalone="no"?>
<!DOCTYPE svg PUBLIC "-//W3C//DTD SVG 1.1//EN" "http://www.w3.org/Graphics/SVG/1.1/DTD/svg11.dtd" >
<svg xmlns="http://www.w3.org/2000/svg" xmlns:xlink="http://www.w3.org/1999/xlink" version="1.1" viewBox="-10 0 1255 2048">
   <path fill="currentColor"
d="M892 627q22 -54 71 -54q80 0 80 74q0 25 -23 76l-169 401l99 258q38 102 91 102q74 0 74 75.5t-73 75.5q-152 0 -213 -156l-61 -154l-52 118q-85 192 -288 192q-104 0 -201 -79t-97 -256v-417q0 -125 84.5 -217.5t220.5 -92.5q207 0 285 207l52 137zM689 1117l-100 -266
q-47 -125 -156 -125q-150 0 -150 174v404q0 177 150 177q102 0 151 -116z" />
</svg>
