<?xml version="1.0" standalone="no"?>
<!DOCTYPE svg PUBLIC "-//W3C//DTD SVG 1.1//EN" "http://www.w3.org/Graphics/SVG/1.1/DTD/svg11.dtd" >
<svg xmlns="http://www.w3.org/2000/svg" xmlns:xlink="http://www.w3.org/1999/xlink" version="1.1" viewBox="-10 0 780 2048">
   <path fill="currentColor"
d="M718 77q0 76 -58 119q-53 40 -117 40h-11q-69 -4 -129 -36q0 -2 -120 -85q-26 -18 -66 -5q-39 13 -39 47v27q0 23 -17 38q-18 16 -44 16q-29 0 -45 -15q-19 -16 -19 -41v-25q0 -73 59 -118q55 -42 120 -42h9q70 3 130 38q109 74 126 87t56 1q40 -12 40 -46v-23
q0 -23 18 -38q20 -16 44.5 -16t42.5 15q20 16 20 37v25z" />
</svg>
