<?xml version="1.0" standalone="no"?>
<!DOCTYPE svg PUBLIC "-//W3C//DTD SVG 1.1//EN" "http://www.w3.org/Graphics/SVG/1.1/DTD/svg11.dtd" >
<svg xmlns="http://www.w3.org/2000/svg" xmlns:xlink="http://www.w3.org/1999/xlink" version="1.1" viewBox="-10 0 1034 2048">
   <path fill="currentColor"
d="M713.135 738.078q31.5205 0 46.1807 14.6611q12.2441 12.2441 12.2441 34.002q0 17.2881 -8.74414 29.2852l-179.93 246.86l181.693 246.198q9.61621 13.2695 9.61621 25.0605q0 23.5039 -13.1299 36.6338q-15.4404 15.4404 -47.1289 15.4102
q-36.6523 -0.0332031 -52.21 -21.3496l-149.277 -204.526l-148.403 204.505q-15.3633 21.3164 -56.2832 21.5029q-30.7432 -0.101562 -45.333 -14.6914q-12.625 -12.625 -12.625 -35.376q0 -14.0771 9.63281 -27.1904l180.807 -246.177l-179.085 -246.895
q-9.59766 -13.4365 -9.59766 -27.8457q0 -22.3828 12.5918 -34.9746q15.0938 -15.0938 47.5537 -15.0938q0.21875 0 0.439453 0.000976562q0.28125 -0.00195312 0.561523 -0.00195312q35.9277 0 53.084 23.5977l146.637 201.689l145.769 -201.674
q17 -23.6133 53.9189 -23.6133q0.289062 0 0.579102 0.00195312q0.219727 -0.000976562 0.439453 -0.000976562z" />
</svg>
