<?xml version="1.0" standalone="no"?>
<!DOCTYPE svg PUBLIC "-//W3C//DTD SVG 1.1//EN" "http://www.w3.org/Graphics/SVG/1.1/DTD/svg11.dtd" >
<svg xmlns="http://www.w3.org/2000/svg" xmlns:xlink="http://www.w3.org/1999/xlink" version="1.1" viewBox="-10 0 1472 2048">
   <path fill="currentColor"
d="M868.539 872.971h-117.635q-156.553 0.0292969 -156.553 168.936v281.22q-0.351562 183.874 141.516 183.971q132.672 -0.0966797 132.672 -178.664v-455.462zM632.384 2037.78q-161.384 0.21582 -309.567 -119.405q-192.816 -154.379 -192.816 -464.352v-476.524
q0 -308.503 222.889 -483.811q176.111 -139.692 392.709 -139.747q200.402 -0.945312 373.25 143.286q214.043 176.679 214.043 484.694v385.424q0.109375 128.65 -47.7617 182.202q-78.1289 88.4482 -183.087 88.4482q-95.042 0 -174.242 -84.9102
q-83.7998 84.9102 -199.893 84.9102q-63.9072 0 -129.134 -37.1484q-130.019 -73.9912 -130.019 -241.463v-336.057q0.245117 -127.332 78.2764 -204.314q78.0176 -76.0654 218.909 -76.0654h149.477q79.6035 0.0478516 79.6035 76.0654v520.912
q-0.0205078 167.07 105.253 167.167q102.599 -0.0966797 102.599 -125.596v-427.879q0.12793 -206.622 -154.783 -347.6q-134.089 -122.022 -304.261 -122.059q-181.828 -0.963867 -323.72 120.289q-160.09 135.731 -160.09 358.214v503.944
q-0.0185547 205.589 137.979 345.831q94.0029 95.7578 255.613 95.5234q76.3896 0.234375 76.0664 69.874q0.323242 60.3604 -97.293 60.1445z" />
</svg>
