<?xml version="1.0" standalone="no"?>
<!DOCTYPE svg PUBLIC "-//W3C//DTD SVG 1.1//EN" "http://www.w3.org/Graphics/SVG/1.1/DTD/svg11.dtd" >
<svg xmlns="http://www.w3.org/2000/svg" xmlns:xlink="http://www.w3.org/1999/xlink" version="1.1" viewBox="-10 0 1051 2048">
   <path fill="currentColor"
d="M911 1224q0 161 -90 287.5t-237 126.5h-390q-35 0 -49.5 -15t-14.5 -50v-1153q0 -24 19.5 -45t44.5 -21h390q123 0 192 102.5t69 230.5t-93 226q159 130 159 311zM684 811q31 -63 31 -131.5t-31 -132t-100 -63.5h-323v390h323q69 0 100 -63zM779 1248q0 -79 -49.5 -161
t-145.5 -82h-323v502h323q96 0 145.5 -82t49.5 -177z" />
</svg>
