<?xml version="1.0" standalone="no"?>
<!DOCTYPE svg PUBLIC "-//W3C//DTD SVG 1.1//EN" "http://www.w3.org/Graphics/SVG/1.1/DTD/svg11.dtd" >
<svg xmlns="http://www.w3.org/2000/svg" xmlns:xlink="http://www.w3.org/1999/xlink" version="1.1" viewBox="-10 0 2058 2048">
   <path fill="currentColor"
d="M118 1806q0 -3 2 -5q2 -3 2 -4l119 -295h1l374 -927l-171 227q-23 29 -46 29t-49 -19t-26 -42.5t17 -45.5l463 -615l1 -2q26.8545 -32.6611 56.8701 -32.6611q11.3398 0 23.1299 4.66113h1v1h2q2 2 14 8q25.1377 21.4141 25.1377 54.9629q0 2.48535 -0.137695 5.03711
l-95 774q-9 57 -58 57q-72 0 -72 -57q0 -8 1 -16l35 -286l-462 1142h866l480 -1187l-172 227q-22 30 -45.5 30t-49.5 -20t-26 -43t17 -45l460 -611l4 -4v-2q27 -32 57 -32h9q16 3 16 5h1q40 17 40 63l-94 763q5 20 -3.5 42.5t-29.5 32.5v-11q-19 11 -41 8q-58 -6 -58 -58
q0 -7 1 -14l35 -286l-124 309h-1l-370 917l-1 2q-16 43 -61 43h-5q-2 1 -7 1h-955q-11 0 -12.5 -2.5t-9.5 -0.5t-28.5 2t-38.5 -24q-1 0 -1 -1h-1v-1q-13 -13 -13 -28v-16q0 -4 1 -6.5t1 -3.5z" />
</svg>
