<?xml version="1.0" standalone="no"?>
<!DOCTYPE svg PUBLIC "-//W3C//DTD SVG 1.1//EN" "http://www.w3.org/Graphics/SVG/1.1/DTD/svg11.dtd" >
<svg xmlns="http://www.w3.org/2000/svg" xmlns:xlink="http://www.w3.org/1999/xlink" version="1.1" viewBox="-10 0 522 2048">
   <path fill="currentColor"
d="M236 993q-45 -52 -45 -131v-405q0 -24 -19 -46q-21 -18 -36 -18h-18q-57 0 -57 -62.5t64 -66.5h8q82 0 134.5 56.5t52.5 136.5v405q0 21 15 42.5t51 24.5q62 4 64 62q1 28 -22.5 47t-47.5 19t-40 20q-20 17 -20 46v406q0 81 -55 137q-50 55 -132 55h-8q-64 -4 -64 -66
t59 -62h5q26 0 47 -18q19 -21 19 -46v-406q0 -79 45 -130z" />
</svg>
