<?xml version="1.0" standalone="no"?>
<!DOCTYPE svg PUBLIC "-//W3C//DTD SVG 1.1//EN" "http://www.w3.org/Graphics/SVG/1.1/DTD/svg11.dtd" >
<svg xmlns="http://www.w3.org/2000/svg" xmlns:xlink="http://www.w3.org/1999/xlink" version="1.1" viewBox="-10 0 2058 2048">
   <path fill="currentColor"
d="M656 615.5q152 -152.5 367 -152.5t368 152.5t153 367.5t-153 367.5t-368 152.5t-367 -152.5t-152 -367.5t152 -367.5zM1299.5 707.5q-114.5 -114.5 -276 -114.5t-275.5 114.5t-114 275.5t114 275.5t275.5 114.5t276 -114.5t114.5 -275.5t-114.5 -275.5zM380.5 340.5
q266.5 -267.5 642.5 -267.5t643.5 267.5t267.5 643t-267.5 642t-643.5 266.5t-642.5 -266.5t-266.5 -642t266.5 -643zM1574.5 432q-229.5 -229 -551.5 -229t-550.5 229t-228.5 551t228.5 550.5t550.5 228.5t551.5 -228.5t229.5 -550.5t-229.5 -551z" />
</svg>
