<?xml version="1.0" standalone="no"?>
<!DOCTYPE svg PUBLIC "-//W3C//DTD SVG 1.1//EN" "http://www.w3.org/Graphics/SVG/1.1/DTD/svg11.dtd" >
<svg xmlns="http://www.w3.org/2000/svg" xmlns:xlink="http://www.w3.org/1999/xlink" version="1.1" viewBox="-12 0 1391 2048">
   <path fill="currentColor"
d="M1324 976q0 274 -194 468t-468 194t-469 -195t-195 -468t195 -468t469 -195t468 195t194 469zM1206 976q0 -226 -159 -386t-385 -160t-385 160t-159 386t159 385t385 159t385 -159t159 -385zM820 1301q18 17 18 42t-18 43t-42 18h-166q-108 0 -167 -68t-59 -158v-414
q0 -108 80 -180q66 -48 146 -48h166q24 0 42 18t18 43t-18 44t-42 19h-166q-44 0 -75 30t-31 74v414q0 42 29 74t77 32h166q24 0 42 17z" />
</svg>
