<?xml version="1.0" standalone="no"?>
<!DOCTYPE svg PUBLIC "-//W3C//DTD SVG 1.1//EN" "http://www.w3.org/Graphics/SVG/1.1/DTD/svg11.dtd" >
<svg xmlns="http://www.w3.org/2000/svg" xmlns:xlink="http://www.w3.org/1999/xlink" version="1.1" viewBox="-10 0 915 2048">
   <path fill="currentColor"
d="M195.64 1507.48q-27.5205 0 -46.6143 -19.0938q-19.0254 -19.0254 -19.0254 -45.9619t19.0254 -45.9619q7.41406 -7.41406 16.6953 -12.0908l397.561 -200.321l-392.286 -186.948q-10.0381 -4.78418 -17.9697 -12.7158q-19.0254 -19.0254 -19.0254 -45.9619
t19.0254 -45.9619q19.1006 -19.1006 46.5986 -19.1006q14.3809 0 27.3555 6.38477l512 243.995q9.70996 4.62793 17.4658 12.2158q19.5312 19.1064 19.5312 46.0449t-18.5273 45.877q-7.58887 7.75684 -17.1953 12.5977l-516 260q-13.4912 7.00293 -28.6143 7.00293z" />
</svg>
