<?xml version="1.0" standalone="no"?>
<!DOCTYPE svg PUBLIC "-//W3C//DTD SVG 1.1//EN" "http://www.w3.org/Graphics/SVG/1.1/DTD/svg11.dtd" >
<svg xmlns="http://www.w3.org/2000/svg" xmlns:xlink="http://www.w3.org/1999/xlink" version="1.1" viewBox="-10 0 1034 2048">
   <path fill="currentColor"
d="M529 1575q-99 63 -135.5 63t-56.5 -20t-20 -55t33 -46q71 -24 118 -55q208 -134 234 -344h-190q-136 0 -230.5 -95.5t-94.5 -229.5v-115q0 -135 94 -230t230 -95t231 94t95 229v377q0 326 -308 522zM707 1002v-324q0 -81 -57 -138t-138 -57t-138 57t-57 138v130
q0 81 56 137.5t139 56.5h195z" />
</svg>
