<?xml version="1.0" standalone="no"?>
<!DOCTYPE svg PUBLIC "-//W3C//DTD SVG 1.1//EN" "http://www.w3.org/Graphics/SVG/1.1/DTD/svg11.dtd" >
<svg xmlns="http://www.w3.org/2000/svg" xmlns:xlink="http://www.w3.org/1999/xlink" version="1.1" viewBox="-10 0 1148 2048">
   <path fill="currentColor"
d="M998.737 352l-70 124q46 70 46 160v668q0 146 -120 239t-275 93t-269 -80l-50 88q-16 40 -62 40t-62 -38t6 -66l72 -128q-40 -74 -40 -148v-668q0 -146 121 -239t273 -93t262 76l48 -88q18 -36 63 -36t60 33t-3 63zM764.737 494q-76 -58 -186 -58t-190 54t-80 146v654z
M842.737 1304v-676l-466 812q80 64 192 64t193 -54t81 -146z" />
</svg>
