<?xml version="1.0" standalone="no"?>
<!DOCTYPE svg PUBLIC "-//W3C//DTD SVG 1.1//EN" "http://www.w3.org/Graphics/SVG/1.1/DTD/svg11.dtd" >
<svg xmlns="http://www.w3.org/2000/svg" xmlns:xlink="http://www.w3.org/1999/xlink" version="1.1" viewBox="-10 0 1203 2048">
   <path fill="currentColor"
d="M879.251 596q184 140 184 376q-2 200 -126 333t-336 133h-6q-89 0 -168 -30l-108 192q-16 38 -59 38t-61 -40q-17 -39 8 -66l100 -184q-178 -142 -177.5 -363t134 -351t331.5 -130q84 0 166 32l106 -196q22 -36 64.5 -36t57 36t-1.5 60zM695.251 652q-55 -16 -107 -16
q-103 0 -192 64q-133 96 -133 269q0 158 112 259zM595.251 1304q152 0 243 -96t91 -244t-116 -250l-322 574q54 16 104 16z" />
</svg>
