<?xml version="1.0" standalone="no"?>
<!DOCTYPE svg PUBLIC "-//W3C//DTD SVG 1.1//EN" "http://www.w3.org/Graphics/SVG/1.1/DTD/svg11.dtd" >
<svg xmlns="http://www.w3.org/2000/svg" xmlns:xlink="http://www.w3.org/1999/xlink" version="1.1" viewBox="-10 0 2058 2048">
   <path fill="currentColor"
d="M1006 138l-4 27l-612 1680q-2 2 -2 3q-16 45 -62 45q-64 0 -64 -65q0 -12 2 -18.5t2 -7.5t2 -1l612 -1681v-2q14 -46 62 -46h2q62 0 62 64v2zM1786 138l-4 27l-612 1680q-2 1 -2 3q-16 45 -62 45q-64 0 -64 -65q0 -15 2 -20t2 -6t2 -1l612 -1681v-2q14 -46 62 -46h2
q62 0 62 64v2z" />
</svg>
