<?xml version="1.0" standalone="no"?>
<!DOCTYPE svg PUBLIC "-//W3C//DTD SVG 1.1//EN" "http://www.w3.org/Graphics/SVG/1.1/DTD/svg11.dtd" >
<svg xmlns="http://www.w3.org/2000/svg" xmlns:xlink="http://www.w3.org/1999/xlink" version="1.1" viewBox="-10 0 704 2048">
   <path fill="currentColor"
d="M547 1269q38 42 49 75t11 82q0 93 -79.5 154t-175.5 61q-67 0 -110.5 -8.5q-27.5 -5.5 -115.5 -32.5q-39 -12 -40 -49.5t27 -57.5t58.5 -13t66.5 18.5t68 11.5h40q48 0 89.5 -25t41.5 -72q0 -29 -25 -49l-300 -243q-65 -67 -65 -150q0 -135 91.5 -181t157.5 -46
q77 0 195 39q43 14 43 58q0 67 -51 67q-14 0 -43 -8q-94 -26 -137.5 -26t-84 26t-40.5 71q0 20 17 45z" />
</svg>
