<?xml version="1.0" standalone="no"?>
<!DOCTYPE svg PUBLIC "-//W3C//DTD SVG 1.1//EN" "http://www.w3.org/Graphics/SVG/1.1/DTD/svg11.dtd" >
<svg xmlns="http://www.w3.org/2000/svg" xmlns:xlink="http://www.w3.org/1999/xlink" version="1.1" viewBox="-10 0 1047 2048">
   <path fill="currentColor"
d="M907 1311q-2 161 -121.5 242t-266.5 82h-63q-67 0 -289 -72q-37 -12 -37 -50t26.5 -58.5t56.5 -9.5q167 60 306 60h7q90 0 170.5 -49.5t80.5 -139t-74 -145.5l-443 -245q-84 -61 -107 -123t-23 -124q0 -147 110 -235.5t275 -88.5q199.143 0 326 74q33 19 33 59
q0 42 -35.5 54.5q-33.623 11.8389 -53.5 4.5q-65 -24 -104 -41q-46 -21 -155 -21t-187.5 51t-78.5 139v4q0 81 72 138l437 243q138 93 138 247v4z" />
</svg>
