<?xml version="1.0" standalone="no"?>
<!DOCTYPE svg PUBLIC "-//W3C//DTD SVG 1.1//EN" "http://www.w3.org/Graphics/SVG/1.1/DTD/svg11.dtd" >
<svg xmlns="http://www.w3.org/2000/svg" xmlns:xlink="http://www.w3.org/1999/xlink" version="1.1" viewBox="-10 0 1034 2048">
   <path fill="currentColor"
d="M642 353q65 0 65 65q0 47.75 -33 56q-141.044 35.2607 -252 173q-87 108 -100 226h190q139.979 0 232 94q93 95 93 231v115q0 137 -95 231t-230 94t-230 -94.5t-95 -228.5v-377q0 -220 147 -387q114 -129 249 -183q37 -15 59 -15zM317 1003v310q0 81 56.5 138t138 57
t138.5 -57.5t57 -137.5v-115q0 -83.9658 -57 -139q-58 -56 -138 -56h-195z" />
</svg>
