<?xml version="1.0" standalone="no"?>
<!DOCTYPE svg PUBLIC "-//W3C//DTD SVG 1.1//EN" "http://www.w3.org/Graphics/SVG/1.1/DTD/svg11.dtd" >
<svg xmlns="http://www.w3.org/2000/svg" xmlns:xlink="http://www.w3.org/1999/xlink" version="1.1" viewBox="-10 0 1034 2048">
   <path fill="currentColor"
d="M512 353q136 0 230.5 94.5t94.5 230.5q0 94.4707 -59 187l-410 643h404q65 0 65 65t-65 65h-520q-65 0 -65 -65q0 -20.668 11 -38l476 -750q33 -52 33 -120t-57 -125t-138 -57q-107.219 0 -204 163q-19 32 -56 32q-65 0 -65 -65q0 -15 6 -27q121 -233 319 -233z" />
</svg>
