<?xml version="1.0" standalone="no"?>
<!DOCTYPE svg PUBLIC "-//W3C//DTD SVG 1.1//EN" "http://www.w3.org/Graphics/SVG/1.1/DTD/svg11.dtd" >
<svg xmlns="http://www.w3.org/2000/svg" xmlns:xlink="http://www.w3.org/1999/xlink" version="1.1" viewBox="-10 0 2058 2048">
   <path fill="currentColor"
d="M1871 332q41 16 41 61v7l-1 1v5h-1v4h-1v3q-2 2 -2 4l-473 1172q-9 28 -25 38h-3q-16 11 -35 11h-883.5t-295.5 -1h-4q-1 0 -1 -1h-4l-2 -1q-19 0 -32 -20.5t-13 -33.5v-17l1 -1v-5l1 -1v-3q2 -1 2 -5l474 -1173q9 -26 25 -38h2q14 -10 36 -10h886.5t295.5 1h4q0 1 1 1h2
q4 2 5 2zM1751 458h-1029l-425 1050h1029z" />
</svg>
