<?xml version="1.0" standalone="no"?>
<!DOCTYPE svg PUBLIC "-//W3C//DTD SVG 1.1//EN" "http://www.w3.org/Graphics/SVG/1.1/DTD/svg11.dtd" >
<svg xmlns="http://www.w3.org/2000/svg" xmlns:xlink="http://www.w3.org/1999/xlink" version="1.1" viewBox="-10 0 937 2048">
   <path fill="currentColor"
d="M320.892 1508h401.419q71 0 71.3369 69.3926q-0.336914 60.6074 -68.5127 60.6074h-506.824q-80 0 -79.9326 -70.2695q-0.0664062 -23.335 16.5 -47.4336l187.189 -272.297h-137.905q-64.8516 0 -65 -65.8779q0.149414 -60.6084 67.6348 -60.6084h219.595
l177.055 -247.514h-408.446q-64.6895 0 -65 -62.3652q0.310547 -67.6348 66.7568 -67.6348h501.554q88 0 89.5947 65q0.399414 22.6602 -14.0537 43.04l-191.108 269.474h151.959q63.6113 0 63.2432 67.6357q0.365234 58.8506 -67.6348 58.8506h-231.014z" />
</svg>
