<?xml version="1.0" standalone="no"?>
<!DOCTYPE svg PUBLIC "-//W3C//DTD SVG 1.1//EN" "http://www.w3.org/Graphics/SVG/1.1/DTD/svg11.dtd" >
<svg xmlns="http://www.w3.org/2000/svg" xmlns:xlink="http://www.w3.org/1999/xlink" version="1.1" viewBox="-10 0 2326 2048">
   <path fill="currentColor"
d="M1160 134q-180 0 -342.5 70t-280.5 189t-187.5 283.5t-69.5 345.5l885 -5l-5 893q181 0 343.5 -70t280.5 -189t187.5 -283.5t69.5 -345.5l-874 -5zM203 1022q0 -197 76 -375.5t204 -308t305 -205.5t372.5 -76t372.5 76t305 205.5t204 308t76 375.5t-76 375.5t-204 308
t-305 205.5t-372.5 76t-372.5 -76t-305 -205.5t-204 -308t-76 -375.5z" />
</svg>
