<?xml version="1.0" standalone="no"?>
<!DOCTYPE svg PUBLIC "-//W3C//DTD SVG 1.1//EN" "http://www.w3.org/Graphics/SVG/1.1/DTD/svg11.dtd" >
<svg xmlns="http://www.w3.org/2000/svg" xmlns:xlink="http://www.w3.org/1999/xlink" version="1.1" viewBox="-10 0 2262 2048">
   <path fill="currentColor"
d="M446 1691zM446 369zM1769 369zM1769 1691zM1062 -62h80l2 157q363 12 619.5 268.5t278.5 601.5h138v88h-136q-8 372 -272.5 635.5t-627.5 275.5v105h-80v-105q-359 -15 -621.5 -277t-270.5 -634h-120v-88h122q21 -345 276 -600t614 -270zM1064 965v-751q-138 13 -270 57
q-144 73 -265 181q-106 121 -180 265q-43 121 -60 248h775zM1144 1053v792q142 -12 277 -57q144 -73 265 -180q108 -120 181 -264q47 -142 58 -291h-781z" />
</svg>
