<?xml version="1.0" standalone="no"?>
<!DOCTYPE svg PUBLIC "-//W3C//DTD SVG 1.1//EN" "http://www.w3.org/Graphics/SVG/1.1/DTD/svg11.dtd" >
<svg xmlns="http://www.w3.org/2000/svg" xmlns:xlink="http://www.w3.org/1999/xlink" version="1.1" viewBox="-10 0 2058 2048">
   <path fill="currentColor"
d="M1916 138l-4 27l-612 1680q-2 1 -2 3q-16 45 -62 45q-64 0 -64 -65q0 -15 2 -20t2 -6t2 -1l142 -391q-136 93 -306 93t-308 -108.5t-184 -273.5l-262 724q-2 2 -2 3q-16 45 -62 45q-64 0 -64 -65q0 -12 2 -18.5t2 -7.5t2 -1l612 -1681v-2q0 -46 62 -46h4q60 0 60 64v2
l-4 27l-142 390q132 -92 302 -92t309 108.5t185 272.5l264 -724v-2q14 -46 62 -46h2q62 0 62 64v2zM1300 707.5q-114 -114.5 -276 -114.5t-276 114.5t-114 275.5t114 275.5t276 114.5t276 -114.5t114 -275.5t-114 -275.5z" />
</svg>
