<?xml version="1.0" standalone="no"?>
<!DOCTYPE svg PUBLIC "-//W3C//DTD SVG 1.1//EN" "http://www.w3.org/Graphics/SVG/1.1/DTD/svg11.dtd" >
<svg xmlns="http://www.w3.org/2000/svg" xmlns:xlink="http://www.w3.org/1999/xlink" version="1.1" viewBox="-10 0 2058 2048">
   <path fill="currentColor"
d="M1308 107q34 -47 80 -29q1 0 1 1h1q1 0 1 1h2q20 10 29.5 30.5t7.5 36.5l-95 774q-7 58 -59 58q-71 0 -71 -60q0 -7 1 -14l35 -285l-496 1225q0 2 -1 3q-16 43 -61 43h-2q-63 -4 -63 -64v-5q0 -5 3 -17l499 -1231l-172 227q-22 30 -45 30t-49.5 -20t-26.5 -43t17 -45
l464 -615v-1z" />
</svg>
