<?xml version="1.0" standalone="no"?>
<!DOCTYPE svg PUBLIC "-//W3C//DTD SVG 1.1//EN" "http://www.w3.org/Graphics/SVG/1.1/DTD/svg11.dtd" >
<svg xmlns="http://www.w3.org/2000/svg" xmlns:xlink="http://www.w3.org/1999/xlink" version="1.1" viewBox="-10 0 920 2048">
   <path fill="currentColor"
d="M232 182q0 -55 54 -55h156q89 0 150.5 61.5t61.5 153.5t-69 152q69 62 69 156v78q0 87 -62.5 149t-149.5 62h-156q-54 0 -54 -55t54 -55h156q43 0 72.5 -29.5t29.5 -71.5v-78q0 -42 -29.5 -71.5t-72.5 -29.5h-78q-54 0 -54 -55t54 -55h78q43 0 72.5 -29.5t29.5 -71.5
t-29.5 -71.5t-72.5 -29.5h-156q-54 0 -54 -55z" />
</svg>
