<?xml version="1.0" standalone="no"?>
<!DOCTYPE svg PUBLIC "-//W3C//DTD SVG 1.1//EN" "http://www.w3.org/Graphics/SVG/1.1/DTD/svg11.dtd" >
<svg xmlns="http://www.w3.org/2000/svg" xmlns:xlink="http://www.w3.org/1999/xlink" version="1.1" viewBox="-10 0 1092 2048">
   <path fill="currentColor"
d="M993 828l-131 764q-9 51 -56 51q-48 0 -60 -33l-205 -395l-203 395q-17 33 -56 33q-55.3662 0 -64 -51l-129 -762q-2 -12 -2 -24q0 -58 59.5 -58q59.6133 0 67.5 47l99 590l172 -345q15 -31 55 -31q43.4551 0 59 31l172 343l97 -588q8 -47 66.5 -47q60.5 0 60.5 59
q0 9 -2 21z" />
</svg>
