<?xml version="1.0" standalone="no"?>
<!DOCTYPE svg PUBLIC "-//W3C//DTD SVG 1.1//EN" "http://www.w3.org/Graphics/SVG/1.1/DTD/svg11.dtd" >
<svg xmlns="http://www.w3.org/2000/svg" xmlns:xlink="http://www.w3.org/1999/xlink" version="1.1" viewBox="-10 0 1440 2048">
   <path fill="currentColor"
d="M712 670h10q37.9414 0 54 51l182 578l214 -890q13 -55 52 -55h25q51 0 51 65q0 7.99609 -3 21l-266 1153q-10 43 -61 43q-49.8574 0 -63 -43l-195 -638l-199 638q-14 45 -63 45q-47 0 -57 -45l-261 -1159q-2 -8.88086 -2 -15q0 -43 33.5 -56.25
q34.1475 -14.0605 60 -3.25q27.5078 10.5029 33.5 37l205 906.5l190 -580q17 -53 60 -53z" />
</svg>
