<?xml version="1.0" standalone="no"?>
<!DOCTYPE svg PUBLIC "-//W3C//DTD SVG 1.1//EN" "http://www.w3.org/Graphics/SVG/1.1/DTD/svg11.dtd" >
<svg xmlns="http://www.w3.org/2000/svg" xmlns:xlink="http://www.w3.org/1999/xlink" version="1.1" viewBox="-10 0 771 2048">
   <path fill="currentColor"
d="M609 748q62 0 62 63q0 23.2178 -9 38l-207 340l209 349q10 17 10 32q0 68 -65 68q-37.3721 0 -54 -28l-174 -293l-173 293q-17 28 -60 28q-61 0 -61 -65q0 -18.2207 10 -35l208 -349l-206 -340q-10 -17 -10 -36q0 -65 64 -65q38.9697 0 57 31l171 294l170 -294
q18 -31 58 -31z" />
</svg>
