<?xml version="1.0" standalone="no"?>
<!DOCTYPE svg PUBLIC "-//W3C//DTD SVG 1.1//EN" "http://www.w3.org/Graphics/SVG/1.1/DTD/svg11.dtd" >
<svg xmlns="http://www.w3.org/2000/svg" xmlns:xlink="http://www.w3.org/1999/xlink" version="1.1" viewBox="-10 0 1174 2048">
   <path fill="currentColor"
d="M1017 467.848l-358 534l356 533q15 23 15 45.5t-21.5 43t-53.5 16t-47 -29.5l-326 -493l-334 493q-23.5996 33.1523 -50.6729 33.1523q-21.1074 0 -44.3271 -20.1523q-23 -20 -23 -40.5t13 -39.5l362 -541l-360 -544q-13 -19 -13 -40.5t32 -41.5q22 -17 44.5 -17t41.5 30
l332 498l328 -490q25 -38 49 -38t49 18q26.9775 19.2695 26.9775 44.9043q0 20.9268 -17.9775 46.0957z" />
</svg>
