<?xml version="1.0" standalone="no"?>
<!DOCTYPE svg PUBLIC "-//W3C//DTD SVG 1.1//EN" "http://www.w3.org/Graphics/SVG/1.1/DTD/svg11.dtd" >
<svg xmlns="http://www.w3.org/2000/svg" xmlns:xlink="http://www.w3.org/1999/xlink" version="1.1" viewBox="-10 0 1171 2048">
   <path fill="currentColor"
d="M821.001 1502h-144q-217.013 0 -293.461 -73.3906q-107.538 -103.479 -107.538 -181.608v-82q0 -96.9707 90.8398 -194.407q90.9834 -97.5918 270.159 -97.5918h152q41.5293 0 59.7646 -18.2363q18.2363 -18.2354 18.2363 -51.7646q0 -26.9678 -14.7988 -41.7666
q-19.2344 -19.2344 -64.2021 -19.2344h-135q-135.267 0 -182.133 -53.5596t-46.8662 -114.544q0 -61.999 48.502 -109.47q48.4561 -47.4248 182.497 -47.4248h124q50.0303 0 71.4795 -21.4492q16.5215 -16.5215 16.5215 -46.5518t-16.5215 -46.5518
q-21.4492 -21.4492 -71.4795 -21.4492h-423q-45.0371 0 -66.0176 -20.9814q-20.9814 -20.9805 -20.9814 -57.3379t-17.1611 -53.5195q-17.1621 -17.1611 -51.7939 -17.1611t-52.3389 17.708q-17.708 17.707 -17.708 56.293q0 65.3955 44.0732 127.098
q43.916 61.4834 149.114 87.0449q1.35742 0.330078 2.67188 1.64453t1.31445 2.92383q0 1.6084 -1.06348 3.13965q-40.1104 57.7188 -40.1104 170.649q0 112.296 81.375 186.811q1.92969 1.76562 1.92969 3.68945q0 2.78125 -2.88379 4.37598
q-232.421 128.574 -232.421 371.624v58q0 145.01 127.637 280.067q5.00391 5.29492 10.0889 10.3799q180.924 111.656 299.275 124.554h233q47.5049 0 69.2285 21.7236q17.7705 17.7705 17.7705 49.2754v151q0 52.8477 -23.2705 76.1191q-17.8809 17.8799 -48.7285 17.8799
q-38.4346 0 -56.7178 18.2832t-18.2832 53.7178t16.2832 51.7178t48.7178 16.2832q92.9678 0 159.117 -66.1494q62.8838 -62.8838 62.8838 -156.852v-164q0 -79.9053 -63.5088 -142.437q-63.542 -62.5645 -146.492 -62.5645z" />
</svg>
