<?xml version="1.0" standalone="no"?>
<!DOCTYPE svg PUBLIC "-//W3C//DTD SVG 1.1//EN" "http://www.w3.org/Graphics/SVG/1.1/DTD/svg11.dtd" >
<svg xmlns="http://www.w3.org/2000/svg" xmlns:xlink="http://www.w3.org/1999/xlink" version="1.1" viewBox="-10 0 834 2048">
   <path fill="currentColor"
d="M736.5 822l-370.5 1109q-42 55 -91 77q-58 26 -123 26t-65 -60v-8q4 -64 81.5508 -61.1348q3.44922 0.134766 7.44922 0.134766q1 0 1.83008 0.0205078q43.1699 -0.0205078 79.1699 -46.0205l89 -278l-256.5 -755q-7.69336 -22.6465 9.5 -54q16 -28 54 -28t57.5 35
l199.5 591l195.5 -577q16.6025 -49 67 -49q24.5 0 47 19.5q23.5 19.5 17 58.5z" />
</svg>
