<?xml version="1.0" standalone="no"?>
<!DOCTYPE svg PUBLIC "-//W3C//DTD SVG 1.1//EN" "http://www.w3.org/Graphics/SVG/1.1/DTD/svg11.dtd" >
<svg xmlns="http://www.w3.org/2000/svg" xmlns:xlink="http://www.w3.org/1999/xlink" version="1.1" viewBox="-10 0 920 2048">
   <path fill="currentColor"
d="M723 606q57 170 57 394q0 228.694 -57 395q-85 248 -268.5 248t-267.5 -247q-57 -169 -57 -395t57 -396q83 -247 267 -247q186 0 269 248zM615 1297q35 -140 35 -297q0 -152.288 -35 -297q-52 -215 -160 -215t-160 216q-35 148 -35 300.5q0 147.616 35 292.5
q52 216 160 216q106 0 160 -216z" />
</svg>
